<?xml version="1.0" encoding="UTF-8" standalone="no"?>
<!DOCTYPE svg PUBLIC "-//W3C//DTD SVG 1.1//EN"
 "http://www.w3.org/Graphics/SVG/1.1/DTD/svg11.dtd">
<!-- Generated by graphviz version 2.43.0 (0)
 -->
<!-- Title: G Pages: 1 -->
<svg width="906pt" height="116pt"
 viewBox="0.00 0.00 905.89 116.00" xmlns="http://www.w3.org/2000/svg" xmlns:xlink="http://www.w3.org/1999/xlink">
<g id="graph0" class="graph" transform="scale(1 1) rotate(0) translate(4 112)">
<title>G</title>
<polygon fill="white" stroke="transparent" points="-4,4 -4,-112 901.89,-112 901.89,4 -4,4"/>
<!-- top -->
<g id="node1" class="node">
<title>top</title>
<ellipse fill="none" stroke="black" cx="527.89" cy="-90" rx="44.69" ry="18"/>
<text text-anchor="middle" x="527.89" y="-86.3" font-family="Times,serif" font-size="14.00">Top Dir</text>
</g>
<!-- my&#45;accounts -->
<g id="node2" class="node">
<title>my&#45;accounts</title>
<ellipse fill="none" stroke="black" cx="68.89" cy="-18" rx="68.79" ry="18"/>
<text text-anchor="middle" x="68.89" y="-14.3" font-family="Times,serif" font-size="14.00">my&#45;accounts</text>
</g>
<!-- top&#45;&#45;my&#45;accounts -->
<g id="edge1" class="edge">
<title>top&#45;&#45;my&#45;accounts</title>
<path fill="none" stroke="black" d="M485.44,-84.17C414.9,-75.9 269.18,-57.8 146.89,-36 137.75,-34.37 128.05,-32.43 118.71,-30.45"/>
</g>
<!-- ixbrl&#45;reporter -->
<g id="node3" class="node">
<title>ixbrl&#45;reporter</title>
<ellipse fill="none" stroke="black" cx="229.89" cy="-18" rx="74.19" ry="18"/>
<text text-anchor="middle" x="229.89" y="-14.3" font-family="Times,serif" font-size="14.00">ixbrl&#45;reporter</text>
</g>
<!-- top&#45;&#45;ixbrl&#45;reporter -->
<g id="edge2" class="edge">
<title>top&#45;&#45;ixbrl&#45;reporter</title>
<path fill="none" stroke="black" d="M490.15,-80.13C437.22,-67.7 340.75,-45.04 281.3,-31.07"/>
</g>
<!-- ixbrl&#45;reporter&#45;jsonnet -->
<g id="node4" class="node">
<title>ixbrl&#45;reporter&#45;jsonnet</title>
<ellipse fill="none" stroke="black" cx="432.89" cy="-18" rx="111.28" ry="18"/>
<text text-anchor="middle" x="432.89" y="-14.3" font-family="Times,serif" font-size="14.00">ixbrl&#45;reporter&#45;jsonnet</text>
</g>
<!-- top&#45;&#45;ixbrl&#45;reporter&#45;jsonnet -->
<g id="edge3" class="edge">
<title>top&#45;&#45;ixbrl&#45;reporter&#45;jsonnet</title>
<path fill="none" stroke="black" d="M507.28,-73.81C492,-62.55 471.19,-47.22 455.46,-35.63"/>
</g>
<!-- ixbrl&#45;parse -->
<g id="node5" class="node">
<title>ixbrl&#45;parse</title>
<ellipse fill="none" stroke="black" cx="622.89" cy="-18" rx="61.19" ry="18"/>
<text text-anchor="middle" x="622.89" y="-14.3" font-family="Times,serif" font-size="14.00">ixbrl&#45;parse</text>
</g>
<!-- top&#45;&#45;ixbrl&#45;parse -->
<g id="edge4" class="edge">
<title>top&#45;&#45;ixbrl&#45;parse</title>
<path fill="none" stroke="black" d="M548.51,-73.81C564.11,-62.31 585.5,-46.56 601.33,-34.89"/>
</g>
<!-- ct600 -->
<g id="node6" class="node">
<title>ct600</title>
<ellipse fill="none" stroke="black" cx="738.89" cy="-18" rx="37.09" ry="18"/>
<text text-anchor="middle" x="738.89" y="-14.3" font-family="Times,serif" font-size="14.00">ct600</text>
</g>
<!-- top&#45;&#45;ct600 -->
<g id="edge5" class="edge">
<title>top&#45;&#45;ct600</title>
<path fill="none" stroke="black" d="M562.48,-78.37C595.97,-67.96 648.1,-51.46 692.89,-36 698.53,-34.06 704.52,-31.9 710.25,-29.8"/>
</g>
<!-- ct600&#45;fill -->
<g id="node7" class="node">
<title>ct600&#45;fill</title>
<ellipse fill="none" stroke="black" cx="845.89" cy="-18" rx="51.99" ry="18"/>
<text text-anchor="middle" x="845.89" y="-14.3" font-family="Times,serif" font-size="14.00">ct600&#45;fill</text>
</g>
<!-- top&#45;&#45;ct600&#45;fill -->
<g id="edge6" class="edge">
<title>top&#45;&#45;ct600&#45;fill</title>
<path fill="none" stroke="black" d="M567.71,-81.67C618.38,-72.13 708.52,-54.5 784.89,-36 792.16,-34.24 799.87,-32.22 807.27,-30.19"/>
</g>
</g>
</svg>
